<svg xmlns="http://www.w3.org/2000/svg" viewBox="28.33 14.18 226.79 51.64"><path d="M1009.9 425.195h12.17v-25.476h18.82v25.476h12.17v-62.074h-12.17v25.762h-18.82v-25.762h-12.17v62.074M1090.95 378.426c.67 2.855.67 5.707.67 8.558 0 2.754 0 5.793-.67 8.649-.76 3.039-3.14 5.703-7.32 5.703-4.09 0-6.65-2.566-7.32-5.988-.47-2.571-.57-5.61-.57-8.364 0-2.851.1-5.703.57-8.273.67-3.422 3.23-5.988 7.32-5.988 4.18 0 6.56 2.66 7.32 5.703zm-25.95-2.473c-.76 3.141-.86 5.801-.86 11.031 0 5.129.1 7.793.86 10.934 1.9 8.074 9.12 13.781 18.82 13.781 9.69 0 16.64-5.707 18.63-13.781.76-3.141.86-5.805.86-10.934 0-5.23-.1-7.89-.86-11.031-1.89-7.984-9.22-13.785-19.01-13.785-9.6 0-16.45 5.801-18.44 13.785M1113.46 375.953c-.77 3.141-.96 5.801-.96 11.031 0 5.129.19 7.891.96 11.121 1.89 7.985 8.07 13.594 17.87 13.594 9.12 0 15.49-3.898 17.39-12.738.38-1.902.58-3.902.58-6.184v-1.422h-11.51v.758c0 1.336 0 2.192-.1 2.946-.56 4.183-2.75 6.277-6.65 6.277-4.09 0-5.89-2.473-6.56-6.559-.28-1.711-.28-5.039-.28-7.793 0-2.851 0-5.613.28-7.32.76-4.184 2.95-6.941 7.41-6.941 4.48 0 7.42 2.757 9.32 6.371l7.79-7.512c-3.51-6.273-10.36-9.414-17.29-9.414-10.28 0-16.36 5.703-18.25 13.785M1170.64 363.121h-11.69v65.496h11.69v-21.008c2.09 2.286 5.42 4.09 9.8 4.09 9.6 0 15.58-6.562 15.58-16.258v-32.32h-11.78v30.801c0 4.469-2.29 7.035-6.75 7.035-3.99 0-6.85-2.566-6.85-7.035v-30.801M1227.56 390.594c6.83-2.567 11.87-5.324 11.87-14.258 0-8.273-6.75-14.168-16.63-14.168-8.84 0-15.4 3.902-18.15 10.078l8.36 6.942c2.38-3.899 5.32-6.465 9.98-6.465 2.47 0 4.47 1.047 4.47 3.328 0 2.66-1.62 3.324-5.7 4.847l-3.71 1.329c-8.74 3.234-11.6 7.511-11.6 14.832 0 8.367 6.94 14.64 16.45 14.64 11.41 0 16.35-5.898 16.35-14.832 0-.758 0-1.519-.1-2.281h-11.69c.1.473.1 1.047.1 1.426 0 4.375-2.47 5.324-4.86 5.324-3.03 0-4.56-2.094-4.56-4.184 0-2.468 2-3.8 5.89-5.226l3.53-1.332M1249.49 375.953c-.76 3.141-.96 5.801-.96 11.031 0 5.129.2 7.891.96 11.121 1.9 7.985 8.08 13.594 17.87 13.594 9.12 0 15.49-3.898 17.39-12.738.39-1.902.58-3.902.58-6.184v-1.422h-11.5v.758c0 1.336 0 2.192-.1 2.946-.57 4.183-2.75 6.277-6.65 6.277-4.09 0-5.9-2.473-6.56-6.559-.29-1.711-.29-5.039-.29-7.793 0-2.851 0-5.613.29-7.32.76-4.184 2.95-6.941 7.41-6.941 4.47 0 7.41 2.757 9.32 6.371l7.79-7.512c-3.52-6.273-10.36-9.414-17.3-9.414-10.27 0-16.35 5.703-18.25 13.785M1306.21 363.121h-11.69v65.496h11.69v-21.008c2.09 2.286 5.42 4.09 9.79 4.09 9.6 0 15.59-6.562 15.59-16.258v-32.32h-11.79v30.801c0 4.469-2.28 7.035-6.74 7.035-4 0-6.85-2.566-6.85-7.035v-30.801M1369.48 367.688c-2.57-3.711-6.66-5.52-11.02-5.52-9.61 0-15.4 6.562-15.4 16.355v32.125h11.69v-30.89c0-4.188 2.18-6.942 6.65-6.942 4.09 0 6.94 2.754 6.94 6.942v30.89h11.69v-47.527h-9.88l-.67 4.567M1404.53 375.098c.66-1.141 2-1.707 3.81-1.707 1.42 0 2.37.281 3.04.472v-10.55c-1.33-.286-3.52-.473-5.23-.473-6.37 0-10.94 2.851-12.83 7.316-.86 2.09-1.24 4.66-1.24 7.223v51.238h11.79v-50.949c0-.953.19-1.809.66-2.57M1429.51 395.059c-.19-.856-.28-1.993-.28-3.325h14.06c0 1.809-.09 2.758-.19 3.325-.56 3.902-2.66 6.277-6.74 6.277-4.19 0-6.19-2.281-6.85-6.277zm24.72 2.859c.56-2.379.66-4.566.66-8.082 0-2.098 0-4.566-.1-7.418h-25.56c0-1.234.09-2.281.28-3.23.76-4.09 3.23-6.465 7.61-6.465 3.42 0 6.84.855 9.7 5.609l7.59-7.32c-4.27-6.274-10.64-8.844-17.49-8.844-10.16 0-16.54 5.801-18.53 13.785-.76 3.141-.86 5.801-.86 11.031 0 5.129.1 7.793.86 10.934 1.99 8.172 8.37 13.781 18.15 13.781 9.6 0 15.78-5.707 17.69-13.781M1500.28 400.387v-37.266h-11.69v37.266h-5.32v10.261h5.32v3.997c0 9.316 5.71 14.925 14.08 14.925 4.74 0 7.59-1.043 10.26-2.66l-3.71-9.414c-1.43.856-2.85 1.234-4.85 1.234-2.38 0-4.09-1.707-4.09-4.656v-3.426h9.42v-10.261h-9.42M1539.34 422.063c0 3.515 2.85 6.464 6.65 6.464 3.61 0 6.66-2.949 6.66-6.464 0-3.52-3.05-6.657-6.66-6.657-3.8 0-6.65 3.137-6.65 6.657zm-18.16 0c0 3.515 2.85 6.464 6.65 6.464 3.61 0 6.66-2.949 6.66-6.464 0-3.52-3.05-6.657-6.66-6.657-3.8 0-6.65 3.137-6.65 6.657zm23.57-54.375c-2.56-3.711-6.66-5.52-11.02-5.52-9.61 0-15.4 6.562-15.4 16.355v32.125h11.69v-30.89c0-4.188 2.19-6.942 6.65-6.942 4.09 0 6.94 2.754 6.94 6.942v30.89h11.69v-47.527h-9.88l-.67 4.567M1579.52 363.121h-11.69v47.527h9.88l.67-4.656c2.47 4.094 6.08 5.52 9.98 5.52.86 0 2.38 0 4.19-.289v-11.504c-2.95.57-4.95.57-6.18.57-4 0-6.85-2.371-6.85-7.129v-30.039M1628.63 413.98h-15.3v11.215H1656V413.98h-15.2v-50.859h-12.17v50.859M1668.25 395.059c-.19-.856-.28-1.993-.28-3.325h14.06c0 1.809-.09 2.758-.19 3.325-.56 3.902-2.66 6.277-6.74 6.277-4.19 0-6.18-2.281-6.85-6.277zm24.72 2.859c.56-2.379.66-4.566.66-8.082 0-2.098 0-4.566-.1-7.418h-25.56c0-1.234.09-2.281.28-3.23.76-4.09 3.23-6.465 7.61-6.465 3.42 0 6.84.855 9.7 5.609l7.59-7.32c-4.27-6.274-10.64-8.844-17.49-8.844-10.16 0-16.54 5.801-18.53 13.785-.76 3.141-.86 5.801-.86 11.031 0 5.129.1 7.793.86 10.934 1.99 8.172 8.37 13.781 18.15 13.781 9.6 0 15.78-5.707 17.69-13.781M1703.68 375.953c-.76 3.141-.96 5.801-.96 11.031 0 5.129.2 7.891.96 11.121 1.9 7.985 8.08 13.594 17.87 13.594 9.12 0 15.49-3.898 17.39-12.738.39-1.902.58-3.902.58-6.184v-1.422h-11.5v.758c0 1.336 0 2.192-.1 2.946-.57 4.183-2.75 6.277-6.65 6.277-4.09 0-5.9-2.473-6.56-6.559-.29-1.711-.29-5.039-.29-7.793 0-2.851 0-5.613.29-7.32.76-4.184 2.95-6.941 7.41-6.941 4.47 0 7.41 2.757 9.31 6.371l7.8-7.512c-3.52-6.273-10.36-9.414-17.3-9.414-10.27 0-16.35 5.703-18.25 13.785M1760.87 363.121h-11.69v65.496h11.69v-21.008c2.09 2.286 5.42 4.09 9.79 4.09 9.6 0 15.59-6.562 15.59-16.258v-32.32h-11.79v30.801c0 4.469-2.28 7.035-6.75 7.035-3.99 0-6.84-2.566-6.84-7.035v-30.801M1809.78 363.121h-11.69v47.527h9.99l.56-4.277c2.47 3.524 6.47 5.328 10.94 5.328 9.6 0 15.59-6.562 15.59-16.258v-32.32h-11.79v30.801c0 4.469-2.29 7.035-6.75 7.035-3.99 0-6.85-2.566-6.85-7.035v-30.801M1847.5 363.121v47.527h11.79v-47.527zm-1.43 59.414c0 3.805 3.14 7.035 7.22 7.035 3.99 0 7.23-3.23 7.23-7.035s-3.24-7.226-7.23-7.226c-4.08 0-7.22 3.421-7.22 7.226M1883.89 381.563v-18.442h-11.88v65.496h11.88v-36.121h.95c9.03 0 12.17 7.223 12.17 15.305 0 .949 0 1.902-.1 2.847h11.99c.08-1.136.18-2.277.18-3.421 0-9.122-3.42-17.391-10.46-21.957l13.98-22.149h-14.26l-10.84 18.535c-.76-.093-1.61-.093-2.47-.093h-1.14M1035.38 269.68c-2.57-3.703-6.66-5.508-11.03-5.508-9.6 0-15.4 6.551-15.4 16.348v32.128h11.69v-30.89c0-4.188 2.19-6.942 6.65-6.942 4.1 0 6.95 2.754 6.95 6.942v30.89h11.69v-47.531h-9.89l-.66 4.563M1069.85 265.117h-11.69v47.531h9.98l.57-4.277c2.47 3.516 6.46 5.32 10.94 5.32 9.6 0 15.58-6.55 15.58-16.25v-32.324h-11.78v30.801c0 4.465-2.29 7.031-6.75 7.031-4 0-6.85-2.566-6.85-7.031v-30.801M1132.75 281.379c.48 2.176.48 4.746.48 7.695s0 5.418-.48 7.703c-.86 4.082-3.51 6.653-7.7 6.653-4.18 0-6.84-2.571-7.6-6.653-.38-1.902-.38-4.754-.38-7.703 0-2.949 0-5.801.38-7.695.76-4.094 3.42-6.758 7.6-6.758 4.19 0 6.84 2.664 7.7 6.758zm1.81-12.551c-2.57-2.664-6.28-4.656-11.79-4.656-8.55 0-14.73 5.605-16.54 13.875-.66 3.234-.86 5.703-.86 10.93 0 5.234.2 7.988.86 11.218 1.61 8.274 8.55 13.496 17.01 13.496 4.38 0 7.61-1.23 9.99-3.132v20.058h11.69v-65.5h-9.79l-.57 3.711M1185.27 265.117l-9.03 38.977c-1.14 4.941-1.81 11.687-1.81 16.258v6.847h12.17v-6.847c0-3.329.38-9.129 1.14-13.407l1.61-8.742c1.34-7.039 2.86-13.594 2.95-17.019h.38c.39 3.992 1.71 9.316 2.76 13.211l4.85 18.918h10.17l4.94-17.493c1.52-5.222 3.05-11.504 3.43-15.3h.38c.1 3.613 1.52 10.078 2.65 16.921l1.53 9.504c.66 4.278 1.04 10.078 1.04 13.407v6.847h12.17v-6.847c0-4.571-.66-11.219-1.71-16.258l-8.46-38.977h-13.31l-5.51 19.582c-1.61 5.801-2.09 9.414-2.28 11.883h-.38c-.2-2.566-.66-6.082-2.28-11.973l-5.23-19.492h-12.17M1246.84 265.117v47.531h11.78v-47.531zm-1.43 59.414c0 3.801 3.13 7.032 7.22 7.032 3.99 0 7.22-3.231 7.22-7.032 0-3.797-3.23-7.226-7.22-7.226-4.09 0-7.22 3.429-7.22 7.226M1282.56 265.117h-11.69v47.531h9.88l.67-4.66c2.47 4.094 6.08 5.52 9.98 5.52.85 0 2.38 0 4.19-.285v-11.504c-2.95.566-4.96.566-6.19.566-3.99 0-6.84-2.371-6.84-7.129v-30.039M1319.34 264.355c-7.99 0-13.79 5.52-13.79 14.922v23.106h-5.33v10.265h5.33v12.93h11.69v-12.93h11.4v-10.265h-11.4V279.57c0-2.949 1.71-4.656 4.27-4.656 1.81 0 3.43.566 4.86 1.895l3.41-9.504c-2.37-1.903-5.5-2.95-10.44-2.95M1357.42 292.59c6.84-2.57 11.88-5.324 11.88-14.258 0-8.273-6.75-14.16-16.63-14.16-8.84 0-15.41 3.894-18.16 10.078l8.36 6.934c2.38-3.899 5.32-6.465 9.98-6.465 2.47 0 4.47 1.043 4.47 3.328 0 2.656-1.62 3.332-5.7 4.844l-3.71 1.339c-8.74 3.231-11.59 7.508-11.59 14.825 0 8.367 6.93 14.636 16.44 14.636 11.41 0 16.35-5.886 16.35-14.824 0-.762 0-1.523-.1-2.285h-11.69c.1.481.1 1.047.1 1.426 0 4.375-2.47 5.324-4.85 5.324-3.04 0-4.56-2.09-4.56-4.18 0-2.472 1.99-3.8 5.89-5.226l3.52-1.336M1379.35 277.949c-.76 3.137-.95 5.801-.95 11.028 0 5.136.19 7.89.95 11.121 1.9 7.988 8.08 13.593 17.88 13.593 9.12 0 15.48-3.894 17.39-12.734.38-1.902.57-3.894.57-6.18v-1.425h-11.5v.761c0 1.328 0 2.188-.1 2.95-.56 4.179-2.75 6.269-6.65 6.269-4.09 0-5.9-2.473-6.56-6.555-.28-1.718-.28-5.039-.28-7.8 0-2.852 0-5.606.28-7.317.76-4.187 2.95-6.941 7.41-6.941 4.47 0 7.41 2.754 9.32 6.367l7.79-7.512c-3.51-6.269-10.36-9.402-17.29-9.402-10.28 0-16.36 5.703-18.26 13.777M1436.07 265.117h-11.69v65.5h11.69v-21.008c2.09 2.278 5.42 4.082 9.8 4.082 9.6 0 15.58-6.55 15.58-16.25v-32.324h-11.78v30.801c0 4.465-2.29 7.031-6.75 7.031-4 0-6.85-2.566-6.85-7.031v-30.801M1492.61 274.719c1.61.379 2.94 2 2.94 4.179 0 2.286-1.23 3.907-2.86 4.375-1.04.282-2.65.282-4.08.282-1.42 0-2.95 0-3.99-.282-1.81-.468-2.85-2.089-2.85-4.375 0-2.179 1.24-3.8 2.85-4.179 1.14-.285 2.66-.285 3.99-.285 1.53 0 2.95 0 4 .285zm-5.71-9.981c-3.23 0-4.75.196-6.75.762-5.99 1.707-9.51 6.648-9.51 13.594 0 7.226 4.38 11.308 9.51 12.832 2 .566 4.19.762 7.42.762 2.85 0 5.22-.481 7.03-1.243v5.801c0 3.809-2.37 6.086-6.09 6.086-3.23 0-5.7-1.523-7.6-5.988l-9.12 5.988c3.61 7.129 8.36 10.359 17.29 10.359 11.04 0 17.31-7.41 17.31-15.964v-32.61h-9.32l-.47 3.332a18.559 18.559 0 0 0-1.62-1.426c-1.61-1.425-4.66-2.285-8.08-2.285M1532.3 302.383v-37.266h-11.69v37.266h-5.32v10.265h5.32v3.993c0 9.316 5.71 14.922 14.08 14.922 4.74 0 7.59-1.043 10.26-2.657l-3.71-9.414c-1.43.86-2.85 1.242-4.84 1.242-2.38 0-4.1-1.718-4.1-4.66v-3.426h9.42v-10.265h-9.42M1566.03 264.355c-7.97 0-13.78 5.52-13.78 14.922v23.106h-5.32v10.265h5.32v12.93h11.69v-12.93h11.41v-10.265h-11.41V279.57c0-2.949 1.72-4.656 4.28-4.656 1.81 0 3.43.566 4.86 1.895l3.41-9.504c-2.37-1.903-5.5-2.95-10.46-2.95M1617.9 290.5v-14.258h8.37c4.08 0 6.75 3.133 6.75 7.313 0 3.996-2.67 6.945-6.75 6.945zm0 25.762v-15.5h6.94c4.37 0 7.6 3.332 7.6 7.804 0 4.461-3.23 7.696-7.6 7.696zm-12.17-51.145v62.082h19.86c11.23 0 18.93-6.847 18.93-18.066 0-4.375-1.9-9.219-6.94-12.735 5.6-3.527 7.69-8.554 7.69-13.41 0-11.121-7.31-17.871-18.24-17.871h-21.3M1665.77 297.063c-.19-.86-.28-2.004-.28-3.333h14.06c0 1.809-.09 2.754-.19 3.333-.56 3.894-2.66 6.269-6.74 6.269-4.19 0-6.19-2.277-6.85-6.269zm24.72 2.851c.56-2.383.66-4.562.66-8.086 0-2.09 0-4.562-.1-7.414h-25.56c0-1.23.09-2.285.28-3.23.76-4.082 3.23-6.465 7.61-6.465 3.42 0 6.84.859 9.7 5.605l7.59-7.316c-4.27-6.278-10.64-8.836-17.49-8.836-10.16 0-16.54 5.789-18.53 13.777-.76 3.137-.86 5.801-.86 11.028 0 5.136.1 7.8.86 10.937 1.99 8.172 8.37 13.777 18.15 13.777 9.6 0 15.78-5.703 17.69-13.777M1713.09 265.117h-11.69v47.531h9.88l.66-4.66c2.47 4.094 6.09 5.52 9.98 5.52.86 0 2.39 0 4.19-.285v-11.504c-2.95.566-4.95.566-6.18.566-3.99 0-6.84-2.371-6.84-7.129v-30.039M1746.33 277.102c.66-1.145 2-1.719 3.81-1.719 1.42 0 2.37.293 3.03.476v-10.554c-1.33-.285-3.51-.469-5.22-.469-6.37 0-10.94 2.852-12.83 7.312-.86 2.102-1.24 4.661-1.24 7.227v51.242h11.78V279.66c0-.949.2-1.808.67-2.558M1761.43 265.117v47.531h11.79v-47.531zm-1.42 59.414c0 3.801 3.13 7.032 7.22 7.032 3.99 0 7.22-3.231 7.22-7.032 0-3.797-3.23-7.226-7.22-7.226-4.09 0-7.22 3.429-7.22 7.226M1797.16 265.117h-11.69v47.531h9.98l.56-4.277c2.48 3.516 6.47 5.32 10.94 5.32 9.6 0 15.59-6.55 15.59-16.25v-32.324h-11.79v30.801c0 4.465-2.28 7.031-6.75 7.031-3.99 0-6.84-2.566-6.84-7.031v-30.801" style="fill:#000;fill-opacity:1;fill-rule:nonzero;stroke:none" transform="matrix(.13333 0 0 -.13333 0 77.947)"/><path d="M1035.78 153.453h9.39v-25.312c0-8.067-.36-11.328-1.55-14.286-2.36-6-7.92-9.472-16.13-9.472-8.28 0-13.84 3.472-16.13 9.402-1.19 3.028-1.62 6.289-1.62 14.356v25.312h9.39v-25.762c0-6.062.08-7.324.44-8.875.82-3.253 3.18-5.625 7.92-5.625s7.03 2.293 7.77 5.543c.37 1.567.52 2.895.52 8.957v25.762M1063.68 105.121h-9.1v37.004h7.76l.45-3.328c1.93 2.73 5.03 4.141 8.51 4.141 7.48 0 12.14-5.098 12.14-12.649v-25.168h-9.18v23.977c0 3.476-1.78 5.476-5.26 5.476-3.1 0-5.32-2-5.32-5.476v-23.977M1092.25 105.121v37.004h9.17v-37.004zm-1.12 46.25c0 2.961 2.44 5.481 5.63 5.481 3.1 0 5.62-2.52 5.62-5.481 0-2.957-2.52-5.625-5.62-5.625-3.19 0-5.63 2.668-5.63 5.625M1119.55 105.121c-2.81 5.703-6.29 14.289-8.44 19.758-1.55 3.926-2.44 8.586-2.44 12.141v5.105h9.03v-5.105c0-2.59.67-6.516 1.85-10.059 1.11-3.41 3.48-8.438 4.51-14.211h.3c1.04 5.773 3.48 10.801 4.58 14.211 1.05 3.105 1.78 7.469 1.78 10.059v5.105h9.03v-5.105c0-3.555-.81-8.364-2.29-12.141-2.15-5.469-5.85-14.055-8.58-19.758h-9.33M1154.77 129.984c-.14-.664-.22-1.55-.22-2.586h10.96c0 1.407-.08 2.149-.15 2.586-.45 3.039-2.08 4.883-5.25 4.883-3.27 0-4.82-1.765-5.34-4.883zm19.24 2.231c.45-1.86.52-3.559.52-6.301 0-1.621 0-3.547-.07-5.769h-19.91c0-.957.08-1.782.22-2.512.6-3.184 2.52-5.039 5.92-5.039 2.67 0 5.33.676 7.55 4.375l5.92-5.703c-3.33-4.883-8.28-6.883-13.61-6.883-7.92 0-12.88 4.512-14.44 10.73-.58 2.442-.66 4.512-.66 8.582 0 3.996.08 6.078.66 8.52 1.56 6.355 6.52 10.723 14.14 10.723 7.47 0 12.29-4.434 13.76-10.723M1191.19 105.121h-9.1v37.004h7.69l.52-3.621c1.93 3.184 4.74 4.285 7.77 4.285.67 0 1.85 0 3.26-.215v-8.957c-2.3.442-3.85.442-4.82.442-3.1 0-5.32-1.844-5.32-5.547v-23.391M1222.26 126.512c5.34-2.004 9.25-4.145 9.25-11.106 0-6.433-5.25-11.023-12.95-11.023-6.87 0-11.98 3.035-14.13 7.84l6.52 5.41c1.84-3.035 4.14-5.039 7.76-5.039 1.92 0 3.49.82 3.49 2.597 0 2.071-1.26 2.586-4.45 3.77l-2.89 1.035c-6.8 2.52-9.02 5.852-9.02 11.543 0 6.516 5.4 11.399 12.8 11.399 8.88 0 12.73-4.583 12.73-11.543 0-.586 0-1.184-.07-1.782h-9.1c.06.371.06.825.06 1.117 0 3.407-1.92 4.137-3.76 4.137-2.38 0-3.56-1.621-3.56-3.25 0-1.926 1.55-2.961 4.59-4.07l2.73-1.035M1239.14 105.121v37.004h9.17v-37.004zm-1.11 46.25c0 2.961 2.44 5.481 5.62 5.481 3.11 0 5.63-2.52 5.63-5.481 0-2.957-2.52-5.625-5.63-5.625-3.18 0-5.62 2.668-5.62 5.625M1269.71 104.527c-6.22 0-10.74 4.297-10.74 11.621v17.989h-4.15v7.988h4.15v10.066h9.11v-10.066h8.87v-7.988h-8.87v-17.766c0-2.293 1.32-3.621 3.33-3.621 1.4 0 2.66.441 3.76 1.477l2.67-7.407c-1.84-1.472-4.29-2.293-8.13-2.293M1283.61 91.356v8.367c.96-.149 1.93-.149 3.25-.149 2.22 0 3.63.586 5.11 3.852l1.04 2.293c-3.26 6.875-6.96 14.726-8.96 19.531-1.78 4.219-2.29 7.922-2.29 11.621v5.254h9.39v-5.254c0-2.59.45-5.625 1.63-8.808 1.26-3.477 3.78-8.438 4.74-14.129h.3c1.1 6.14 3.62 11.394 4.66 14.129a24.026 24.026 0 0 1 1.63 8.808v5.254h9.33v-5.254c0-3.699-.6-7.695-2.23-11.621-2.36-5.77-7.47-17.91-11.03-25.156-2.73-5.625-5.99-9.18-12.36-9.18-.88 0-1.92 0-4.21.442M1354.41 117.035c.52 2.219.52 4.445.52 6.66 0 2.153 0 4.516-.52 6.743-.58 2.363-2.44 4.429-5.69 4.429-3.18 0-5.19-1.988-5.7-4.656-.37-2-.44-4.363-.44-6.516 0-2.215.07-4.441.44-6.433.51-2.664 2.52-4.668 5.7-4.668 3.25 0 5.11 2.082 5.69 4.441zm-20.2-1.922c-.59 2.442-.67 4.512-.67 8.582 0 3.996.08 6.078.67 8.52 1.48 6.289 7.11 10.723 14.66 10.723s12.95-4.434 14.5-10.723c.59-2.442.66-4.524.66-8.52 0-4.07-.07-6.14-.66-8.582-1.48-6.218-7.18-10.73-14.81-10.73-7.47 0-12.8 4.512-14.35 10.73M1382.75 134.137v-29.016h-9.1v29.016h-4.14v7.988h4.14v3.105c0 7.254 4.44 11.622 10.96 11.622 3.69 0 5.92-.809 7.99-2.071l-2.89-7.324c-1.11.664-2.22.957-3.77.957-1.86 0-3.19-1.328-3.19-3.621v-2.668h7.33v-7.988h-7.33M1426.56 143.453l-5.99-19.531h12.06zm-8.73-38.332h-9.47v5.332c0 3.547.96 9.027 2.29 12.871l10.43 30.129h11.18l10.36-30.195c1.33-3.778 2.29-9.258 2.29-12.805v-5.332h-9.39v5.332c0 1.328-.15 3.254-.45 4.953h-16.8c-.29-1.699-.44-3.625-.44-4.953v-5.332M1461.27 129.773c-.29-1.488-.29-3.859-.29-6.078 0-2.293 0-4.441.29-5.918.66-3.179 2.73-5.254 5.99-5.254 3.26 0 5.41 2.075 6 5.254.29 1.477.37 3.625.37 5.918 0 2.219-.08 4.59-.37 6.078-.59 3.172-2.74 5.172-6 5.172s-5.33-2-5.99-5.172zm-.29-22.875V91.141h-9.11v50.984h7.62l.45-2.957c1.99 2.215 4.95 3.77 9.32 3.77 6.66 0 11.39-4.368 12.73-10.801.52-2.59.67-4.367.67-8.442 0-4.07-.15-6.211-.67-8.726-1.34-6.438-6.59-10.586-13.32-10.586-3.33 0-5.85.965-7.69 2.515M1499.82 129.773c-.29-1.488-.29-3.859-.29-6.078 0-2.293 0-4.441.29-5.918.67-3.179 2.74-5.254 6-5.254 3.25 0 5.4 2.075 6 5.254.29 1.477.37 3.625.37 5.918 0 2.219-.08 4.59-.37 6.078-.6 3.172-2.75 5.172-6 5.172-3.26 0-5.33-2-6-5.172zm-.29-22.875V91.141h-9.1v50.984h7.62l.45-2.957c1.99 2.215 4.95 3.77 9.31 3.77 6.66 0 11.4-4.368 12.74-10.801.51-2.59.66-4.367.66-8.442 0-4.07-.15-6.211-.66-8.726-1.34-6.438-6.6-10.586-13.32-10.586-3.33 0-5.85.965-7.7 2.515M1538.52 114.449c.52-.886 1.56-1.34 2.96-1.34 1.12 0 1.86.227 2.38.371v-8.21c-1.04-.223-2.75-.372-4.08-.372-4.96 0-8.51 2.227-9.99 5.704-.66 1.621-.96 3.625-.96 5.625v39.882h9.18v-39.668c0-.73.14-1.406.51-1.992M1549.55 105.121v37.004h9.17v-37.004zm-1.11 46.25c0 2.961 2.44 5.481 5.62 5.481 3.11 0 5.63-2.52 5.63-5.481 0-2.957-2.52-5.625-5.63-5.625-3.18 0-5.62 2.668-5.62 5.625M1575.82 129.984c-.15-.664-.23-1.55-.23-2.586h10.96c0 1.407-.08 2.149-.14 2.586-.45 3.039-2.08 4.883-5.26 4.883-3.26 0-4.81-1.765-5.33-4.883zm19.24 2.231c.45-1.86.52-3.559.52-6.301 0-1.621 0-3.547-.07-5.769h-19.92c0-.957.08-1.782.23-2.512.6-3.184 2.52-5.039 5.92-5.039 2.66 0 5.33.676 7.55 4.375l5.91-5.703c-3.33-4.883-8.28-6.883-13.61-6.883-7.92 0-12.88 4.512-14.43 10.73-.59 2.442-.67 4.512-.67 8.582 0 3.996.08 6.078.67 8.52 1.55 6.355 6.51 10.723 14.14 10.723 7.47 0 12.28-4.434 13.76-10.723M1623.1 117.777c.38 1.703.38 3.703.38 5.996 0 2.297 0 4.219-.38 6-.67 3.172-2.74 5.172-5.99 5.172-3.26 0-5.33-2-5.92-5.172-.3-1.488-.3-3.703-.3-6 0-2.293 0-4.519.3-5.996.59-3.179 2.66-5.254 5.92-5.254 3.25 0 5.32 2.075 5.99 5.254zm1.41-9.761c-2-2.082-4.89-3.633-9.18-3.633-6.66 0-11.47 4.363-12.88 10.808-.52 2.508-.66 4.434-.66 8.504 0 4.075.14 6.223.66 8.735 1.26 6.441 6.66 10.508 13.25 10.508 3.4 0 5.92-.958 7.78-2.446v15.617h9.1v-50.988h-7.63l-.44 2.895M1654.18 114.078l7.32 5.996c2.3-4.812 5.48-6.883 9.25-6.883 3.48 0 5.55 1.778 5.55 4.879 0 2.668-2.14 4.516-4.66 5.625l-5.11 2.297c-6.95 3.184-10.13 7.324-10.13 13.77 0 8.508 5.99 14.426 14.72 14.426 7.99 0 14.88-4.368 14.88-15.469 0-.664 0-1.328-.07-2.071h-9.48c.07.665.07 1.336.07 2 0 4.219-1.55 6.883-5.54 6.883-3.33 0-5.19-2-5.19-5.105 0-2.227.82-4.297 4.3-5.918l6.14-2.891c6.95-3.254 9.7-7.469 9.7-12.949 0-8.953-6.08-14.285-15.92-14.285-7.55 0-12.87 3.992-15.83 9.695M1693.25 115.113c-.59 2.442-.74 4.512-.74 8.582 0 3.996.15 6.145.74 8.664 1.48 6.211 6.29 10.579 13.92 10.579 7.1 0 12.06-3.032 13.53-9.915.3-1.484.45-3.039.45-4.812v-1.106h-8.95v.586c0 1.036 0 1.707-.08 2.293-.44 3.262-2.14 4.883-5.18 4.883-3.18 0-4.59-1.922-5.1-5.094-.23-1.339-.23-3.925-.23-6.078 0-2.215 0-4.363.23-5.691.59-3.262 2.29-5.41 5.77-5.41 3.47 0 5.77 2.148 7.25 4.961l6.07-5.852c-2.74-4.883-8.07-7.32-13.47-7.32-8 0-12.73 4.441-14.21 10.73M1727.88 105.121v37.004h9.17v-37.004zm-1.11 46.25c0 2.961 2.44 5.481 5.62 5.481 3.11 0 5.63-2.52 5.63-5.481 0-2.957-2.52-5.625-5.63-5.625-3.18 0-5.62 2.668-5.62 5.625M1754.15 129.984c-.15-.664-.23-1.55-.23-2.586h10.96c0 1.407-.08 2.149-.14 2.586-.45 3.039-2.08 4.883-5.26 4.883-3.26 0-4.81-1.765-5.33-4.883zm19.24 2.231c.45-1.86.52-3.559.52-6.301 0-1.621 0-3.547-.07-5.769h-19.92c0-.957.08-1.782.23-2.512.6-3.184 2.52-5.039 5.92-5.039 2.66 0 5.33.676 7.55 4.375l5.91-5.703c-3.33-4.883-8.28-6.883-13.61-6.883-7.92 0-12.88 4.512-14.43 10.73-.59 2.442-.67 4.512-.67 8.582 0 3.996.08 6.078.67 8.52 1.55 6.355 6.51 10.723 14.14 10.723 7.47 0 12.28-4.434 13.76-10.723M1790.56 105.121h-9.11v37.004h7.77l.45-3.328c1.92 2.73 5.03 4.141 8.5 4.141 7.48 0 12.14-5.098 12.14-12.649v-25.168h-9.18v23.977c0 3.476-1.78 5.476-5.25 5.476-3.11 0-5.32-2-5.32-5.476v-23.977M1818.53 115.113c-.59 2.442-.74 4.512-.74 8.582 0 3.996.15 6.145.74 8.664 1.48 6.211 6.29 10.579 13.92 10.579 7.1 0 12.06-3.032 13.54-9.915.3-1.484.44-3.039.44-4.812v-1.106h-8.95v.586c0 1.036 0 1.707-.08 2.293-.44 3.262-2.14 4.883-5.17 4.883-3.19 0-4.59-1.922-5.11-5.094-.23-1.339-.23-3.925-.23-6.078 0-2.215 0-4.363.23-5.691.59-3.262 2.29-5.41 5.77-5.41 3.48 0 5.77 2.148 7.26 4.961l6.06-5.852c-2.73-4.883-8.07-7.32-13.47-7.32-7.99 0-12.73 4.441-14.21 10.73M1861.52 129.984c-.14-.664-.22-1.55-.22-2.586h10.95c0 1.407-.07 2.149-.14 2.586-.45 3.039-2.08 4.883-5.26 4.883-3.26 0-4.81-1.765-5.33-4.883zm19.24 2.231c.45-1.86.52-3.559.52-6.301 0-1.621 0-3.547-.07-5.769h-19.91c0-.957.08-1.782.22-2.512.6-3.184 2.52-5.039 5.92-5.039 2.67 0 5.33.676 7.55 4.375l5.92-5.703c-3.33-4.883-8.28-6.883-13.62-6.883-7.92 0-12.88 4.512-14.43 10.73-.59 2.442-.66 4.512-.66 8.582 0 3.996.07 6.078.66 8.52 1.55 6.355 6.51 10.723 14.14 10.723 7.47 0 12.29-4.434 13.76-10.723M1904.14 126.512c5.33-2.004 9.25-4.145 9.25-11.106 0-6.433-5.26-11.023-12.95-11.023-6.88 0-11.98 3.035-14.13 7.84l6.51 5.41c1.85-3.035 4.14-5.039 7.77-5.039 1.92 0 3.48.82 3.48 2.597 0 2.071-1.26 2.586-4.44 3.77l-2.89 1.035c-6.81 2.52-9.03 5.852-9.03 11.543 0 6.516 5.4 11.399 12.81 11.399 8.87 0 12.72-4.583 12.72-11.543 0-.586 0-1.184-.07-1.782h-9.1c.07.371.07.825.07 1.117 0 3.407-1.92 4.137-3.77 4.137-2.37 0-3.55-1.621-3.55-3.25 0-1.926 1.55-2.961 4.59-4.07l2.73-1.035M797.09 425.063h53.148V318.766H797.09v106.297M903.391 318.766v-53.149h-53.153v53.149h53.153M425.043 478.215h53.148v-53.152h53.153v-53.145h-53.153v-53.152h53.153v-53.149h-53.153c-29.351 0-53.148 23.793-53.148 53.149.207-.024 0 159.449 0 159.449" style="fill:#76b900;fill-opacity:1;fill-rule:nonzero;stroke:none" transform="matrix(.13333 0 0 -.13333 0 77.947)"/><path d="M584.488 425.063h53.153V318.766h53.152v106.297h53.148V318.766h53.149v-53.149H637.641c-29.352 0-53.153 23.793-53.153 53.149v106.297M265.594 371.918V265.617h-53.149v106.301h53.149M265.594 478.215v-53.152h-53.149v53.152h53.149" style="fill:#76b900;fill-opacity:1;fill-rule:nonzero;stroke:none" transform="matrix(.13333 0 0 -.13333 0 77.947)"/><path d="m265.566 425.063 53.153.007c29.351 0 53.176-23.804 53.176-53.152V265.617h-53.149v106.301h-53.152l-.028 53.145" style="fill:#76b900;fill-opacity:1;fill-rule:nonzero;stroke:none" transform="matrix(.13333 0 0 -.13333 0 77.947)"/></svg>